<mxfile host="app.diagrams.net" agent="Mozilla/5.0 (X11; Linux x86_64) AppleWebKit/537.36 (KHTML, like Gecko) Chrome/128.0.0.0 Safari/537.36" version="24.7.14">
  <diagram name="Page-1" id="6QVppPX6dMcFLP7eY7Ap">
    <mxGraphModel dx="1368" dy="717" grid="1" gridSize="10" guides="1" tooltips="1" connect="1" arrows="1" fold="1" page="1" pageScale="1" pageWidth="850" pageHeight="1100" math="0" shadow="0">
      <root>
        <mxCell id="0" />
        <mxCell id="1" parent="0" />
        <mxCell id="V4mTDnC5FWkVb8QuH4lW-3" style="edgeStyle=orthogonalEdgeStyle;rounded=0;orthogonalLoop=1;jettySize=auto;html=1;" edge="1" parent="1" source="V4mTDnC5FWkVb8QuH4lW-1" target="V4mTDnC5FWkVb8QuH4lW-2">
          <mxGeometry relative="1" as="geometry" />
        </mxCell>
        <mxCell id="V4mTDnC5FWkVb8QuH4lW-1" value="ISCHEDOBJECT INTERFACE" style="rounded=0;whiteSpace=wrap;html=1;" vertex="1" parent="1">
          <mxGeometry x="90" y="70" width="670" height="60" as="geometry" />
        </mxCell>
        <mxCell id="V4mTDnC5FWkVb8QuH4lW-11" style="edgeStyle=orthogonalEdgeStyle;rounded=0;orthogonalLoop=1;jettySize=auto;html=1;" edge="1" parent="1" source="V4mTDnC5FWkVb8QuH4lW-2" target="V4mTDnC5FWkVb8QuH4lW-4">
          <mxGeometry relative="1" as="geometry" />
        </mxCell>
        <mxCell id="V4mTDnC5FWkVb8QuH4lW-2" value="USER SCHEDULER/THREAD SCHEDULER/HW THREAD SCHEDULER" style="rounded=0;whiteSpace=wrap;html=1;" vertex="1" parent="1">
          <mxGeometry x="90" y="170" width="670" height="50" as="geometry" />
        </mxCell>
        <mxCell id="V4mTDnC5FWkVb8QuH4lW-4" value="ANOTHER SCHEDULER OR DIRECT CALL TO DRIVER/HAL." style="rounded=0;whiteSpace=wrap;html=1;" vertex="1" parent="1">
          <mxGeometry x="90" y="280" width="670" height="60" as="geometry" />
        </mxCell>
        <mxCell id="V4mTDnC5FWkVb8QuH4lW-12" value="PROCESS BANKS CPU 1..N" style="shape=cylinder3;whiteSpace=wrap;html=1;boundedLbl=1;backgroundOutline=1;size=15;" vertex="1" parent="1">
          <mxGeometry x="338" y="450" width="175" height="80" as="geometry" />
        </mxCell>
        <mxCell id="V4mTDnC5FWkVb8QuH4lW-13" style="edgeStyle=orthogonalEdgeStyle;rounded=0;orthogonalLoop=1;jettySize=auto;html=1;entryX=0.5;entryY=0;entryDx=0;entryDy=0;entryPerimeter=0;" edge="1" parent="1" source="V4mTDnC5FWkVb8QuH4lW-4" target="V4mTDnC5FWkVb8QuH4lW-12">
          <mxGeometry relative="1" as="geometry" />
        </mxCell>
        <mxCell id="V4mTDnC5FWkVb8QuH4lW-15" value="&lt;h1 style=&quot;margin-top: 0px;&quot;&gt;Raise error checks when:&lt;/h1&gt;&lt;p&gt;- Kernel level tasks crashes.&lt;/p&gt;&lt;p&gt;- An assertion fails.&lt;/p&gt;&lt;p&gt;- System Call isn&#39;t returning correctly.&lt;/p&gt;&lt;p&gt;- Driver is at an uncertain state.&lt;/p&gt;" style="text;html=1;whiteSpace=wrap;overflow=hidden;rounded=0;" vertex="1" parent="1">
          <mxGeometry x="580" y="390" width="180" height="210" as="geometry" />
        </mxCell>
      </root>
    </mxGraphModel>
  </diagram>
</mxfile>
